<svg xmlns="http://www.w3.org/2000/svg" version="1.1" xmlns:xlink="http://www.w3.org/1999/xlink" xmlns:svgjs="http://svgjs.com/svgjs" width="512" height="512" x="0" y="0" viewBox="0 0 512 512" style="enable-background:new 0 0 512 512" xml:space="preserve" class=""><g><g xmlns="http://www.w3.org/2000/svg" id="_x33_6_Expertise"><g><g><path d="m384.231 295.82c0-70.729-57.541-128.271-128.263-128.271-70.684 0-128.195 57.541-128.195 128.271 0 44.707 23.733 86.162 61.401 109.254-4.893 5.015-7.935 11.848-7.935 19.393 0 11.87 7.506 21.947 17.992 25.933v7.879c0 23.782 19.353 43.135 43.135 43.135h27.271c23.782 0 43.135-19.353 43.135-43.135v-7.879c10.487-3.986 17.992-14.063 17.992-25.933 0-7.545-3.041-14.376-7.934-19.391 37.675-23.095 61.401-64.549 61.401-109.256zm-86.857 162.458c0 15.293-12.444 27.737-27.737 27.737h-27.271c-15.293 0-27.737-12.444-27.737-27.737v-6h82.744v6zm5.579-21.398h-93.902c-6.842 0-12.414-5.571-12.414-12.414s5.571-12.414 12.414-12.414h93.902c6.842 0 12.414 5.571 12.414 12.414s-5.572 12.414-12.414 12.414zm2.825-39.94c-3.787-.389-95.766-.389-99.553 0-38.356-18.888-63.055-58.32-63.055-101.12 0-62.241 50.602-112.872 112.797-112.872 62.233 0 112.865 50.632 112.865 112.872 0 42.799-24.698 82.232-63.054 101.12z" fill="#ffffff" data-original="#000000"></path><path d="m317.878 72.977c4.496-3.278 6.293-8.827 4.564-14.12-1.729-5.301-6.444-8.722-12.015-8.722h-31.541c-.474 0-.895-.301-1.038-.752l-9.835-30.083c-3.798-11.626-20.227-11.61-24.023-.008l-9.835 30.09c-.143.451-.564.752-1.038.752h-31.549c-12.219 0-17.325 15.631-7.436 22.85l25.647 18.699c.383.278.541.767.391 1.218l-9.774 29.917c-3.811 11.648 9.508 21.334 19.429 14.158l25.534-18.526c.376-.286.902-.286 1.278 0l25.534 18.526c9.955 7.201 23.236-2.544 19.436-14.158l-9.782-29.917c-.15-.444.015-.932.391-1.211zm-37.03 23.519 9.782 29.917c.068.203.248.752-.391 1.218-.632.444-1.113.12-1.286-.008l-25.526-18.519c-4.358-3.176-10.327-3.277-14.85-.008l-25.534 18.534c-.188.12-.662.444-1.278 0-.639-.466-.459-1.015-.391-1.218l9.774-29.917c1.707-5.218-.128-10.902-4.564-14.143l-25.647-18.699c-.18-.128-.647-.474-.398-1.226.241-.744.812-.744 1.03-.744h31.549c5.481 0 10.308-3.496 12.015-8.707l9.835-30.098c.337-1.012 1.741-1.007 2.068.008l9.835 30.09c1.707 5.211 6.534 8.707 12.015 8.707h31.541c.218 0 .789 0 1.038.752.241.752-.218 1.09-.391 1.211l-25.662 18.714c-4.437 3.242-6.271 8.918-4.564 14.136z" fill="#ffffff" data-original="#000000"></path><path d="m429.081 178.97-6.955-21.301 18.248-13.308c8.433-6.139 4.088-19.489-6.346-19.489h-22.444l-7-21.414c-3.234-9.9-17.259-9.91-20.496 0l-7 21.414h-22.444c-10.459 0-14.766 13.342-6.361 19.489l18.263 13.308-6.955 21.293c-3.262 9.953 8.153 18.155 16.571 12.075l18.173-13.188 18.173 13.18c8.448 6.14 19.816-2.177 16.573-12.059zm-28.414-10.797c-3.789-2.737-8.872-2.737-12.662 0l-16.699 12.113 6.391-19.541c1.459-4.459-.105-9.308-3.887-12.075l-16.805-12.248h20.647c4.684 0 8.797-2.992 10.241-7.429l6.444-19.714 6.444 19.699c1.444 4.451 5.556 7.444 10.241 7.444h20.639l-16.797 12.256c-3.782 2.759-5.346 7.602-3.887 12.053l6.391 19.556z" fill="#ffffff" data-original="#000000"></path><path d="m490.479 242.857h-18.105l-5.647-17.271c-2.971-9.129-15.951-9.152-18.932-.008l-5.647 17.278h-18.105c-9.637 0-13.629 12.34-5.872 18.008l14.722 10.744-5.609 17.165c-2.983 9.132 7.488 16.807 15.323 11.158l14.654-10.632 14.654 10.632c7.802 5.625 18.311-2.001 15.323-11.165l-5.609-17.158 14.722-10.744c7.765-5.672 3.756-18.007-5.872-18.007zm-16.586 20.098c-3.496 2.549-4.947 7.023-3.602 11.143v.008l4.451 13.609-11.639-8.444c-3.523-2.551-8.223-2.501-11.692 0l-11.632 8.444 4.451-13.617c1.346-4.12-.105-8.594-3.594-11.135l-11.729-8.556h14.391c4.316 0 8.12-2.759 9.466-6.865l4.496-13.752 4.496 13.752c1.346 4.105 5.15 6.865 9.466 6.865h14.391z" fill="#ffffff" data-original="#000000"></path><path d="m54.75 218.714h-.008c-4.316 0-8.128 2.759-9.474 6.872l-5.639 17.271h-18.112c-4.323 0-8.128 2.759-9.466 6.865-1.346 4.113.098 8.594 3.594 11.15l14.729 10.737-5.609 17.158c-3.021 9.233 7.587 16.777 15.323 11.165l14.654-10.632 14.654 10.632c7.797 5.655 18.309-2 15.316-11.165l-5.609-17.15 14.729-10.752c3.489-2.549 4.94-7.023 3.602-11.135-1.338-4.113-5.15-6.872-9.474-6.872h-18.105l-5.646-17.271c-1.339-4.106-5.143-6.865-9.459-6.873zm28.346 35.692-11.722 8.549c-3.504 2.549-4.955 7.03-3.609 11.143v.008l4.451 13.602-11.632-8.436c-3.481-2.519-8.18-2.534-11.692 0l-11.632 8.444 4.451-13.617c1.346-4.12-.105-8.594-3.594-11.143l-11.729-8.549h14.383c4.323 0 8.128-2.759 9.474-6.872l4.496-13.752 4.489 13.737c1.331 4.12 5.143 6.887 9.474 6.887h14.392z" fill="#ffffff" data-original="#000000"></path><path d="m157.359 124.872h-22.451l-7-21.414c-3.234-9.9-17.252-9.91-20.489 0l-7 21.414h-22.451c-4.752 0-8.774 2.917-10.248 7.436-1.474 4.526.06 9.248 3.895 12.053l18.263 13.308-6.962 21.301c-3.217 9.867 8.07 18.217 16.579 12.068l18.173-13.188 18.165 13.188c3.857 2.789 8.835 2.789 12.677-.015 3.85-2.797 5.376-7.534 3.902-12.06l-6.962-21.286 18.256-13.316c3.842-2.797 5.376-7.526 3.902-12.045-1.467-4.519-5.49-7.444-10.249-7.444zm-19.166 23.805c-3.774 2.752-5.346 7.594-3.895 12.045v.015l6.398 19.556-16.707-12.128c-3.797-2.729-8.872-2.722-12.654.008l-16.707 12.12 6.398-19.549c1.459-4.459-.105-9.308-3.887-12.075l-16.805-12.248h20.639c4.669 0 8.789-2.985 10.248-7.429l6.436-19.699 6.446 19.707c1.459 4.436 5.579 7.421 10.248 7.421h20.639z" fill="#ffffff"></path></g></g></g></g></svg>